<?xml version="1.0" encoding="utf-8"?>
<svg id="master-artboard" viewBox="0 0 238.6657257080078 120" version="1.1" xmlns="http://www.w3.org/2000/svg" x="0px" y="0px" style="enable-background:new 0 0 336 235.2;" width="238.6657257080078px" height="120px"><rect id="ee-background" x="0" y="0" width="238.6657257080078" height="120" style="fill: rgb(0, 47, 149); fill-opacity: 1; pointer-events: none;"/><path d="M 87.80436706542969 52.698177337646484 L 86.36437225341797 65.54817962646484 C 86.14437103271484 67.54817962646484 85.48103332519531 68.93817901611328 84.3743667602539 69.71817779541016 C 83.34103393554688 70.4448471069336 81.89437103271484 70.80817413330078 80.03437042236328 70.80817413330078 C 79.84103393554688 70.80817413330078 79.74436950683594 70.71484375 79.74436950683594 70.5281753540039 L 80.02436828613281 68.23817443847656 C 80.06436920166016 68.051513671875 80.1610336303711 67.95817565917969 80.31436920166016 67.95817565917969 C 81.74103546142578 67.95817565917969 82.64437103271484 67.63484191894531 83.02436828613281 66.98817443847656 C 83.2043685913086 66.68817901611328 83.32103729248047 66.29151153564453 83.3743667602539 65.79817962646484 L 84.8543701171875 52.7681770324707 C 84.86770629882812 52.674842834472656 84.89437103271484 52.608177185058594 84.93437194824219 52.56817626953125 C 84.96770477294922 52.53484344482422 85.03770446777344 52.511512756347656 85.14437103271484 52.49817657470703 L 87.5043716430664 52.418174743652344 C 87.7043685913086 52.43817901611328 87.80436706542969 52.53150939941406 87.80436706542969 52.698177337646484 ZM 97.63516998291016 52.68817901611328 L 99.00517272949219 70.33818054199219 C 99.00517272949219 70.51817321777344 98.9018325805664 70.6148452758789 98.6951675415039 70.628173828125 L 96.25516510009766 70.72817993164062 C 96.0885009765625 70.72817993164062 96.00516510009766 70.6515121459961 96.00516510009766 70.49817657470703 L 95.82516479492188 66.63817596435547 L 93.16516876220703 66.73817443847656 L 92.28517150878906 70.34817504882812 C 92.26516723632812 70.46150970458984 92.23516845703125 70.53484344482422 92.1951675415039 70.56817626953125 C 92.15516662597656 70.6081771850586 92.08516693115234 70.63150787353516 91.98516845703125 70.63817596435547 L 89.55516815185547 70.72817993164062 C 89.4018325805664 70.72817993164062 89.32516479492188 70.6515121459961 89.32516479492188 70.49817657470703 L 94.46517181396484 52.7681770324707 C 94.5251693725586 52.60150909423828 94.6318359375 52.511512756347656 94.78517150878906 52.49817657470703 L 97.36516571044922 52.40817642211914 C 97.5318374633789 52.41484069824219 97.62183380126953 52.5081787109375 97.63516998291016 52.68817901611328 M 95.41516876220703 57.5181770324707 L 93.7751693725586 64.24817657470703 L 95.72516632080078 64.17817687988281 L 95.41516876220703 57.5181770324707 ZM 110.12775421142578 70.14817810058594 C 110.11441802978516 70.24150848388672 110.08775329589844 70.30817413330078 110.0477523803711 70.34817504882812 C 110.00775146484375 70.38817596435547 109.62442016601562 70.47484588623047 108.89775085449219 70.6081771850586 C 108.17108917236328 70.74150848388672 107.43775177001953 70.80817413330078 106.69775390625 70.80817413330078 C 105.47775268554688 70.80817413330078 104.54441833496094 70.41484069824219 103.89775085449219 69.628173828125 C 103.25109100341797 68.83484649658203 102.9277572631836 67.7581787109375 102.9277572631836 66.39817810058594 C 102.9277572631836 63.98484420776367 103.21442413330078 61.18151092529297 103.78775787353516 57.98817825317383 C 104.09442138671875 56.2681770324707 104.47108459472656 55.06150817871094 104.91775512695312 54.36817932128906 C 105.3844223022461 53.641510009765625 105.94775390625 53.131507873535156 106.60775756835938 52.83817672729492 C 107.4277572631836 52.47817611694336 108.3044204711914 52.298179626464844 109.23775482177734 52.298179626464844 C 110.17108917236328 52.298179626464844 110.79441833496094 52.32484436035156 111.10775756835938 52.378177642822266 C 111.4277572631836 52.43151092529297 111.60775756835938 52.461509704589844 111.64775085449219 52.468177795410156 C 111.74775695800781 52.50151062011719 111.7977523803711 52.598175048828125 111.7977523803711 52.7581787109375 L 111.52775573730469 54.93817901611328 C 111.49442291259766 55.14484405517578 111.41442108154297 55.24817657470703 111.28775024414062 55.24817657470703 C 111.16775512695312 55.24817657470703 110.88108825683594 55.21484375 110.4277572631836 55.14817810058594 C 109.97441864013672 55.081512451171875 109.60775756835938 55.04817581176758 109.3277587890625 55.04817581176758 C 108.57442474365234 55.04817581176758 108.00109100341797 55.23817825317383 107.60775756835938 55.6181755065918 C 107.22108459472656 55.99150848388672 106.93109130859375 56.718177795410156 106.73775482177734 57.79817581176758 C 106.54441833496094 58.87150955200195 106.361083984375 60.31150817871094 106.18775177001953 62.1181755065918 C 106.00775146484375 63.924842834472656 105.91775512695312 65.30817413330078 105.91775512695312 66.26817321777344 C 105.91775512695312 67.4015121459961 106.41775512695312 67.96817779541016 107.41775512695312 67.96817779541016 C 107.70442199707031 67.96817779541016 108.20775604248047 67.9215087890625 108.9277572631836 67.82817840576172 C 109.64775085449219 67.72817993164062 110.05775451660156 67.67817687988281 110.15775299072266 67.67817687988281 C 110.31775665283203 67.67817687988281 110.39775085449219 67.77484130859375 110.39775085449219 67.96817779541016 L 110.12775421142578 70.14817810058594 ZM 113.6057357788086 70.8581771850586 C 113.41240692138672 70.8581771850586 113.31573486328125 70.76151275634766 113.31573486328125 70.56817626953125 L 113.6057357788086 68.128173828125 C 113.63906860351562 67.95484161376953 113.74240112304688 67.8581771850586 113.91573333740234 67.83818054199219 C 115.12907409667969 67.71817779541016 115.93240356445312 67.52484130859375 116.32573699951172 67.2581787109375 C 116.71907043457031 66.99817657470703 116.91574096679688 66.47817993164062 116.91574096679688 65.69817352294922 C 116.91574096679688 64.91817474365234 116.71573638916016 63.901512145996094 116.31573486328125 62.64817810058594 C 115.91573333740234 61.39484405517578 115.6557388305664 60.55817794799805 115.53573608398438 60.13817596435547 C 115.16240692138672 58.81150817871094 114.97573852539062 57.72484588623047 114.97573852539062 56.878177642822266 C 114.97573852539062 56.03150939941406 115.1124038696289 55.30817794799805 115.38573455810547 54.70817565917969 C 115.65907287597656 54.10150909423828 116.049072265625 53.62150955200195 116.55574035644531 53.2681770324707 C 117.54240417480469 52.57484436035156 118.86907196044922 52.22817611694336 120.53573608398438 52.22817611694336 C 120.74240112304688 52.22817611694336 120.84573364257812 52.32817840576172 120.84573364257812 52.528175354003906 L 120.53573608398438 54.948177337646484 C 120.50240325927734 55.14817810058594 120.40240478515625 55.254844665527344 120.23573303222656 55.2681770324707 C 118.72240447998047 55.3681755065918 117.96573638916016 55.81817626953125 117.96573638916016 56.6181755065918 C 117.96573638916016 57.35150909423828 118.28907012939453 58.79484558105469 118.93573760986328 60.948177337646484 C 119.57573699951172 63.10150909423828 119.89573669433594 64.64151000976562 119.89573669433594 65.56817626953125 C 119.89573669433594 69.09484100341797 117.799072265625 70.8581771850586 113.6057357788086 70.8581771850586 Z" transform="matrix(4.870406150817871, 0, 0, 4.870406150817871, -372.034912109375, -241.10107421875)" style="fill: rgb(255, 251, 245); white-space: pre; color: rgb(255, 251, 245);"/></svg>